<?xml version="1.0" encoding="UTF-8"?>
<svg width="30" height="25" version="1.1" viewBox="0 0 30 25" xmlns="http://www.w3.org/2000/svg">
 <g id="img" transform="translate(-.40152 -.74605)" fill="none" stroke="currentColor" stroke-linecap="round" stroke-linejoin="round" stroke-width="1.5">
  <!-- Phone body (landscape) -->
  <!-- Left strip divider -->
  <g transform="translate(3.3647 1.3459)">
   <path d="m3 4.25c-1.5105 0-2.75 1.2395-2.75 2.75v10c0 1.5105 1.2395 2.75 2.75 2.75h17.811c1.5105 0 2.75-1.2395 2.75-2.75v-10c0-0.40369 0.15857 0.34648 0 0 0 0-0.25462 0.40654-0.52229 0.40654-0.26767 0-0.78844-0.21727-0.97771-0.40654l-1.25-1.25c-0.33135-0.18565 0.99901-0.69441 1-1.0742-4.51e-4 -0.076148 0.0074-0.15212 0.02344-0.22656-0.317-0.12854-0.66219-0.19922-1.0234-0.19922zm0 1.5h17.811c0.70547 0 1.25 0.54453 1.25 1.25v10c0 0.70547-0.54453 1.25-1.25 1.25h-17.811c-0.70547 0-1.25-0.54453-1.25-1.25v-10c0-0.70547 0.54453-1.25 1.25-1.25z" fill="currentColor" stop-color="currentColor000" stroke="none"/>
   <line x1="5" x2="5" y1="5" y2="19"/>
  </g>
  <!-- ZZZ (small to large, bottom-left to top-right) -->
  <g transform="translate(3.0649 .77276)">
   <path d="m8.7125 8.2664h3.5155l-3.5155 2.3437h3.5155" stroke-width="1.7577"/>
   <path d="m12.205 12.573h2.7931l-2.7931 1.7402h2.7931" stroke-width="1.3501"/>
   <path d="m16.518 15.331h1.2292l-1.2292 0.76587h1.2292" fill="none" stroke="currentColor" stroke-opacity=".75921" stroke-width=".59417"/>
  </g>
  <!-- Padlock overlapping top-right corner -->
  <g transform="matrix(.75006 0 0 .75006 9.2923 3.3742)">
   <path d="m19.798 1.3444c-0.73192 0-1.3202 0.58829-1.3202 1.3202v4.0231c0 0.73192 0.58829 1.3202 1.3202 1.3202h5.2835c0.73192 0 1.3228-0.58829 1.3228-1.3202v-4.0231c0-0.73192-0.59089-1.3202-1.3228-1.3202zm2.604 1.9738c0.67497 0.00128 1.2214 0.54889 1.2213 1.2239 3.3e-5 0.34379-0.14456 0.67173-0.39841 0.90358 0.0014 0.016462 0.0022 0.26992 0.0026 0.28644-8.95e-4 0.45552-0.36994 0.82456-0.82546 0.82546-0.45653 5.401e-4 -0.82716-0.36893-0.82806-0.82546 4e-4 -0.016514 0.0012-0.26997 0.0026-0.28644-0.25384-0.23185-0.39844-0.55979-0.39841-0.90358-1.54e-4 -0.67599 0.54788-1.224 1.2239-1.2239z" fill="currentColor" stroke="none"/>
   <path d="m20.621 1.4612v-1.3649q1.819-1.4786 3.6381 0v1.3649" stroke-width="1.2457"/>
  </g>
 </g>
</svg>
