<?xml version="1.0" encoding="UTF-8"?>
<svg width="30" height="25" version="1.1" viewBox="0 0 30 25" xmlns="http://www.w3.org/2000/svg">
 <g id="img" transform="translate(-.40152 -.74605)" fill="none" stroke="currentColor" stroke-linecap="round" stroke-linejoin="round" stroke-width="1.5">
  <!-- Phone body (landscape) -->
  <!-- Left strip divider -->
  <g transform="translate(3.3647 1.3459)">
   <path d="m2.9997 4.2498c-1.5105 0-2.75 1.2395-2.75 2.75v10c1e-8 1.5105 1.2395 2.75 2.75 2.75h17.811c0.090313 0 0.17946-0.005037 0.26758-0.013672 0.0401-0.003942 0.079547-0.011908 0.11914-0.017578 0.055453-0.007928 0.11165-0.014162 0.16602-0.025391 0.089028-0.018388 0.17596-0.041484 0.26172-0.068359 0.001974-6.19e-4 0.003887-0.00133 0.005859-0.001953 0.068856-0.021751 0.13664-0.045306 0.20312-0.072266-1.35e-4 -6.26e-4 1.34e-4 -0.001326 0-0.001953 0.9942-0.40347 1.7052-1.3731 1.7246-2.502 1.1e-5 -6.56e-4 -1.1e-5 -0.001297 0-0.001953 0.00201-0.013465 0.001953-0.028663 0.001953-0.044922v-10c0-0.01518-0.001704-0.029797-0.001953-0.044922-9.7e-5 -6.473e-4 1.01e-4 -0.0013119 0-0.0019531-0.01942-1.1288-0.73041-2.0985-1.7246-2.502 1.34e-4 -6.269e-4 -1.35e-4 -0.0013265 0-0.0019531-0.066487-0.026959-0.13427-0.050515-0.20312-0.072266-0.001972-6.23e-4 -0.003885-0.0013345-0.005859-0.0019531-0.08576-0.026875-0.17269-0.049971-0.26172-0.068359-0.054364-0.011229-0.11056-0.017463-0.16602-0.025391-0.039594-0.0056705-0.079041-0.013636-0.11914-0.017578-0.088115-0.0086348-0.17726-0.013672-0.26758-0.013672h-17.811zm0 1.5h17.811c0.70547 0 1.25 0.54453 1.25 1.25v10c0 0.70547-0.54453 1.25-1.25 1.25h-17.811c-0.70547 0-1.25-0.54453-1.25-1.25v-10c0-0.044092 0.0016989-0.088118 0.0058594-0.13086 0.062407-0.64112 0.58276-1.1191 1.2441-1.1191z" fill="currentColor" stop-color="currentColor" stroke="none"/>
   <g fill="none" stroke="none">
    <path d="m22.061 8.2754-1e-6 8.7246c0 0.70547-0.54453 1.25-1.25 1.25h-17.811c-0.70547 0-1.25-0.54453-1.25-1.25v-10c0-0.70547 0.54453-1.25 1.25-1.25h16.16" stop-color="currentColor"/>
    <path d="m19.16 5.75h1.6504c0.70547 0 1.25 0.54453 1.25 1.25l1e-6 1.2754" stop-color="currentColor"/>
    <path d="m19.16 4.25-16.16-1e-7c-1.5105 0-2.75 1.2395-2.75 2.75v10c0 1.5105 1.2395 2.75 2.75 2.75h17.811c1.5105 0 2.75-1.2395 2.75-2.75v-8.7246" stop-color="currentColor"/>
    <path d="m23.561 8.2754v-1.2754c0-0.40369 0.15857 0.34648 0 0l-0.52229 0.40654s0.26767 0 0 0c-0.26767 0-1.134-0.18923-0.97771-0.40654 0.98528-1.37 0.56861-1.7867-1.25-1.25-0.33135-0.18565 0.99901-0.69441 1-1.0742-4.51e-4 -0.076148 0.0074-0.15212 0.02344-0.22656-0.317-0.12854-0.66219-0.19922-1.0234-0.19922l-1.6504 1e-7" stop-color="currentColor"/>
   </g>
   <line x1="5" x2="5" y1="5" y2="19"/>
  </g>
  <!-- ZZZ (small to large, bottom-left to top-right) -->
  <g transform="translate(3.0649 .77276)">
   <path d="m8.7125 8.2664h3.5155l-3.5155 2.3437h3.5155" stroke-width="1.7577"/>
   <path d="m12.205 12.573h2.7931l-2.7931 1.7402h2.7931" stroke-width="1.3501"/>
   <path d="m16.518 15.331h1.2292l-1.2292 0.76587h1.2292" fill="none" stroke="currentColor" stroke-opacity=".75921" stroke-width=".59417"/>
  </g>
 </g>
</svg>
